# xmcd CD database file
#
# Track frame offsets:
#	150
#	36908
#	58744
#	83115
#	117474
#	141171
#	159119
#	182373
#	207273
#
# Disc length: 3162 seconds
#
# Revision: 0
# Processed by: cddbd v1.5.2PL0 Copyright (c) Steve Scherf et al.
# Submitted via: CDex 1.70beta2
#
DISCID=740c5809
DTITLE=Sunny Jain Collective - Azaaz
DYEAR=2006
DGENRE=Jazz
TTITLE0=Sialkot
TTITLE1=Avaaz
TTITLE2=Pink City
TTITLE3=Johnnie Black
TTITLE4=Meri Bhavana
TTITLE5=Awaara Hoon
TTITLE6=Wo Xiang Ni
TTITLE7=Baraat
TTITLE8=Lazaro
EXTD=YEAR: 2006
EXTT0=
EXTT1=
EXTT2=
EXTT3=
EXTT4=
EXTT5=
EXTT6=
EXTT7=
EXTT8=
PLAYORDER=
